<?xml version="1.0" encoding="UTF-8" standalone="no"?>
<!-- Uploaded to: SVG Repo, www.svgrepo.com, Generator: SVG Repo Mixer Tools -->

<svg
   fill="#000000"
   width="800px"
   height="800px"
   viewBox="0 0 36 36"
   version="1.1"
   id="svg5"
   sodipodi:docname="ci-cd.svg"
   inkscape:version="1.3.1 (91b66b0783, 2023-11-16)"
   xmlns:inkscape="http://www.inkscape.org/namespaces/inkscape"
   xmlns:sodipodi="http://sodipodi.sourceforge.net/DTD/sodipodi-0.dtd"
   xmlns="http://www.w3.org/2000/svg"
   xmlns:svg="http://www.w3.org/2000/svg">
  <defs
     id="defs5" />
  <sodipodi:namedview
     id="namedview5"
     pagecolor="#ffffff"
     bordercolor="#000000"
     borderopacity="0.25"
     inkscape:showpageshadow="2"
     inkscape:pageopacity="0.0"
     inkscape:pagecheckerboard="0"
     inkscape:deskcolor="#d1d1d1"
     inkscape:zoom="1.01625"
     inkscape:cx="400"
     inkscape:cy="400"
     inkscape:window-width="1920"
     inkscape:window-height="1009"
     inkscape:window-x="-8"
     inkscape:window-y="760"
     inkscape:window-maximized="1"
     inkscape:current-layer="a9b55181-08cd-4e23-b315-7b35ac037aca" />
  <title
     id="title1">ci_cd_line</title>
  <g
     id="a9b55181-08cd-4e23-b315-7b35ac037aca"
     data-name="Layer 3">
    <path
       d="M23.53,19.81a7.45,7.45,0,0,1-1.65-.18,10.48,10.48,0,0,1,.72,2.13c.3,0,.61,0,.93,0a9.52,9.52,0,0,0,3-.49l-.93-1.81A7.67,7.67,0,0,1,23.53,19.81Z"
       id="path1"
       style="fill:#000080" />
    <path
       d="M18.36,17.87,18,17.49a7.4,7.4,0,0,1-2.2-5.92,7.31,7.31,0,0,1,1.54-4L17.26,9A1,1,0,0,0,18.17,10h.09a1,1,0,0,0,1-.91L19.6,5a1,1,0,0,0-.29-.79A1,1,0,0,0,18.52,4l-4.09.35a1,1,0,0,0,.17,2l1.29-.11a9.45,9.45,0,0,0-2.05,5.32,9.28,9.28,0,0,0,2.67,7.26l.31.37a7.33,7.33,0,0,1,2.06,4.91,7.39,7.39,0,0,1-.26,2.47l1.8.91a8.76,8.76,0,0,0,.45-3.51A9.28,9.28,0,0,0,18.36,17.87Z"
       id="path2"
       style="fill:#000080" />
    <path
       d="M32.4,17.91,31.19,18A9.65,9.65,0,0,0,23.53,2.45a9.33,9.33,0,0,0-3,.49l.91,1.8a7.67,7.67,0,0,1,9.76,7.39,7.58,7.58,0,0,1-1.65,4.72l.1-1.54a1,1,0,1,0-2-.13l-.28,4.08a1,1,0,0,0,.31.78.94.94,0,0,0,.69.28h.1l4.08-.42a1,1,0,0,0,.9-1.1A1,1,0,0,0,32.4,17.91Z"
       id="path3"
       style="fill:#000080" />
    <path
       d="M4.07,20.44h.08l4.09-.35a1,1,0,1,0-.17-2l-1.39.12a7.63,7.63,0,0,1,4.52-1.49,7.9,7.9,0,0,1,1.63.18,10.23,10.23,0,0,1-.71-2.13c-.3,0-.61,0-.92,0a9.66,9.66,0,0,0-5.9,2l.12-1.31a1,1,0,0,0-.92-1.08,1,1,0,0,0-1.08.91l-.35,4.08a1,1,0,0,0,1,1.08Z"
       id="path4"
       style="fill:#000080" />
    <path
       d="M18.42,28.23l-4.09.27a1,1,0,0,0,.13,2L16,30.39a7.71,7.71,0,0,1-12.54-6,7.6,7.6,0,0,1,.29-2L2,21.46a9.59,9.59,0,0,0-.47,2.95A9.7,9.7,0,0,0,17.19,32l-.12,1.18a1,1,0,0,0,.89,1.1h.11a1,1,0,0,0,1-.9l.42-4.06a1,1,0,0,0-1.06-1.1Z"
       id="path5"
       style="fill:#000080" />
  </g>
</svg>
