<svg xmlns="http://www.w3.org/2000/svg" version="1.1" xmlns:xlink="http://www.w3.org/1999/xlink" xmlns:svgjs="http://svgjs.dev/svgjs" width="1500" height="935" viewBox="0 0 1500 935"><g transform="matrix(1,0,0,1,-0.9090909090909918,0.3785425101214628)"><svg viewBox="0 0 396 247" data-background-color="#fefbf6" preserveAspectRatio="xMidYMid meet" height="935" width="1500" xmlns="http://www.w3.org/2000/svg" xmlns:xlink="http://www.w3.org/1999/xlink"><g id="tight-bounds" transform="matrix(1,0,0,1,0.2400000000000091,-0.09999999999999432)"><svg viewBox="0 0 395.52 247.2" height="247.2" width="395.52"><g><svg></svg></g><g><svg viewBox="0 0 395.52 247.2" height="247.2" width="395.52"><mask id="806c2800-f07a-4a38-a05b-501d159b3ca4"><rect width="395.52" height="247.2" fill="white"></rect><g transform="matrix(1,0,0,1,0,96.60017382906808)" id="clone"><svg viewBox="0 0 395.52 53.99965234186383" height="53.99965234186383" width="395.52"><g><svg viewBox="0 0 395.52 53.99965234186383" height="53.99965234186383" width="395.52"><g><svg viewBox="0 0 395.52 53.99965234186383" height="53.99965234186383" width="395.52"><g id="SvgjsG3967"><svg viewBox="0 0 395.52 53.99965234186383" height="53.99965234186383" width="395.52" id="SvgjsSvg3966"><g><svg viewBox="0 0 395.52 53.99965234186383" height="53.99965234186383" width="395.52"><g transform="matrix(1,0,0,1,0,0)"><svg width="395.52" viewBox="-0.1499999999999999 -41.05 415.15999999999997 57.55" height="53.99965234186383" data-palette-color="#29231d"><path d="M14.9 0.35Q11.45 0.35 8.72-0.88 6-2.1 4.45-4.28 2.9-6.45 2.85-9.3L2.85-9.3 7.7-9.3Q7.95-6.85 9.73-5.18 11.5-3.5 14.9-3.5L14.9-3.5Q18.15-3.5 20.03-5.13 21.9-6.75 21.9-9.3L21.9-9.3Q21.9-11.3 20.8-12.55 19.7-13.8 18.05-14.45 16.4-15.1 13.6-15.85L13.6-15.85Q10.15-16.75 8.08-17.65 6-18.55 4.53-20.48 3.05-22.4 3.05-25.65L3.05-25.65Q3.05-28.5 4.5-30.7 5.95-32.9 8.58-34.1 11.2-35.3 14.6-35.3L14.6-35.3Q19.5-35.3 22.63-32.85 25.75-30.4 26.15-26.35L26.15-26.35 21.15-26.35Q20.9-28.35 19.05-29.88 17.2-31.4 14.15-31.4L14.15-31.4Q11.3-31.4 9.5-29.93 7.7-28.45 7.7-25.8L7.7-25.8Q7.7-23.9 8.78-22.7 9.85-21.5 11.43-20.88 13-20.25 15.85-19.45L15.85-19.45Q19.3-18.5 21.4-17.57 23.5-16.65 25-14.73 26.5-12.8 26.5-9.5L26.5-9.5Q26.5-6.95 25.15-4.7 23.8-2.45 21.15-1.05 18.5 0.35 14.9 0.35L14.9 0.35ZM58.2-14.75Q58.2-13.45 58.05-12L58.05-12 36.15-12Q36.4-7.95 38.92-5.68 41.45-3.4 45.05-3.4L45.05-3.4Q48-3.4 49.97-4.78 51.95-6.15 52.75-8.45L52.75-8.45 57.65-8.45Q56.55-4.5 53.25-2.02 49.95 0.45 45.05 0.45L45.05 0.45Q41.15 0.45 38.07-1.3 35-3.05 33.25-6.28 31.5-9.5 31.5-13.75L31.5-13.75Q31.5-18 33.2-21.2 34.9-24.4 37.97-26.13 41.05-27.85 45.05-27.85L45.05-27.85Q48.95-27.85 51.95-26.15 54.95-24.45 56.57-21.48 58.2-18.5 58.2-14.75L58.2-14.75ZM53.5-15.7Q53.5-18.3 52.35-20.18 51.2-22.05 49.22-23.03 47.25-24 44.85-24L44.85-24Q41.4-24 38.97-21.8 36.55-19.6 36.2-15.7L36.2-15.7 53.5-15.7ZM68.75-22.95Q69.94-25.3 72.17-26.6 74.39-27.9 77.59-27.9L77.59-27.9 77.59-23.2 76.39-23.2Q68.75-23.2 68.75-14.9L68.75-14.9 68.75 0 64.19 0 64.19-27.4 68.75-27.4 68.75-22.95ZM94.14-27.85Q97.69-27.85 100.37-26.3 103.04-24.75 104.34-22.4L104.34-22.4 104.34-27.4 108.94-27.4 108.94 0.6Q108.94 4.35 107.34 7.28 105.74 10.2 102.77 11.85 99.79 13.5 95.84 13.5L95.84 13.5Q90.44 13.5 86.84 10.95 83.24 8.4 82.59 4L82.59 4 87.09 4Q87.84 6.5 90.19 8.03 92.54 9.55 95.84 9.55L95.84 9.55Q99.59 9.55 101.97 7.2 104.34 4.85 104.34 0.6L104.34 0.6 104.34-5.15Q102.99-2.75 100.34-1.15 97.69 0.45 94.14 0.45L94.14 0.45Q90.49 0.45 87.52-1.35 84.54-3.15 82.84-6.4 81.14-9.65 81.14-13.8L81.14-13.8Q81.14-18 82.84-21.18 84.54-24.35 87.52-26.1 90.49-27.85 94.14-27.85L94.14-27.85ZM104.34-13.75Q104.34-16.85 103.09-19.15 101.84-21.45 99.72-22.68 97.59-23.9 95.04-23.9L95.04-23.9Q92.49-23.9 90.39-22.7 88.29-21.5 87.04-19.2 85.79-16.9 85.79-13.8L85.79-13.8Q85.79-10.65 87.04-8.33 88.29-6 90.39-4.78 92.49-3.55 95.04-3.55L95.04-3.55Q97.59-3.55 99.72-4.78 101.84-6 103.09-8.33 104.34-10.65 104.34-13.75L104.34-13.75ZM118.99-31.85Q117.69-31.85 116.79-32.75 115.89-33.65 115.89-34.95L115.89-34.95Q115.89-36.25 116.79-37.15 117.69-38.05 118.99-38.05L118.99-38.05Q120.24-38.05 121.12-37.15 121.99-36.25 121.99-34.95L121.99-34.95Q121.99-33.65 121.12-32.75 120.24-31.85 118.99-31.85L118.99-31.85ZM116.64-27.4L121.19-27.4 121.19 0 116.64 0 116.64-27.4ZM140.89 0.45Q137.04 0.45 133.91-1.3 130.79-3.05 129.01-6.28 127.24-9.5 127.24-13.75L127.24-13.75Q127.24-17.95 129.06-21.18 130.89-24.4 134.04-26.13 137.19-27.85 141.09-27.85L141.09-27.85Q144.99-27.85 148.14-26.13 151.29-24.4 153.11-21.2 154.94-18 154.94-13.75L154.94-13.75Q154.94-9.5 153.06-6.28 151.19-3.05 147.99-1.3 144.79 0.45 140.89 0.45L140.89 0.45ZM140.89-3.55Q143.34-3.55 145.49-4.7 147.64-5.85 148.96-8.15 150.29-10.45 150.29-13.75L150.29-13.75Q150.29-17.05 148.99-19.35 147.69-21.65 145.59-22.78 143.49-23.9 141.04-23.9L141.04-23.9Q138.54-23.9 136.46-22.78 134.39-21.65 133.14-19.35 131.89-17.05 131.89-13.75L131.89-13.75Q131.89-10.4 133.11-8.1 134.34-5.8 136.39-4.67 138.44-3.55 140.89-3.55L140.89-3.55ZM198.28-34.85L203.08-34.85 189.93 0 184.68 0 171.53-34.85 176.38-34.85 187.33-4.8 198.28-34.85ZM233.08-14.75Q233.08-13.45 232.93-12L232.93-12 211.03-12Q211.28-7.95 213.81-5.68 216.33-3.4 219.93-3.4L219.93-3.4Q222.88-3.4 224.86-4.78 226.83-6.15 227.63-8.45L227.63-8.45 232.53-8.45Q231.43-4.5 228.13-2.02 224.83 0.45 219.93 0.45L219.93 0.45Q216.03 0.45 212.96-1.3 209.88-3.05 208.13-6.28 206.38-9.5 206.38-13.75L206.38-13.75Q206.38-18 208.08-21.2 209.78-24.4 212.86-26.13 215.93-27.85 219.93-27.85L219.93-27.85Q223.83-27.85 226.83-26.15 229.83-24.45 231.46-21.48 233.08-18.5 233.08-14.75L233.08-14.75ZM228.38-15.7Q228.38-18.3 227.23-20.18 226.08-22.05 224.11-23.03 222.13-24 219.73-24L219.73-24Q216.28-24 213.86-21.8 211.43-19.6 211.08-15.7L211.08-15.7 228.38-15.7ZM243.63-22.95Q244.83-25.3 247.05-26.6 249.28-27.9 252.48-27.9L252.48-27.9 252.48-23.2 251.28-23.2Q243.63-23.2 243.63-14.9L243.63-14.9 243.63 0 239.08 0 239.08-27.4 243.63-27.4 243.63-22.95ZM260.08-31.85Q258.78-31.85 257.88-32.75 256.98-33.65 256.98-34.95L256.98-34.95Q256.98-36.25 257.88-37.15 258.78-38.05 260.08-38.05L260.08-38.05Q261.33-38.05 262.2-37.15 263.08-36.25 263.08-34.95L263.08-34.95Q263.08-33.65 262.2-32.75 261.33-31.85 260.08-31.85L260.08-31.85ZM257.73-27.4L262.28-27.4 262.28 0 257.73 0 257.73-27.4ZM279.72 0.45Q276.57 0.45 274.07-0.63 271.57-1.7 270.12-3.63 268.67-5.55 268.52-8.05L268.52-8.05 273.22-8.05Q273.42-6 275.15-4.7 276.87-3.4 279.67-3.4L279.67-3.4Q282.27-3.4 283.77-4.55 285.27-5.7 285.27-7.45L285.27-7.45Q285.27-9.25 283.67-10.13 282.07-11 278.72-11.85L278.72-11.85Q275.67-12.65 273.75-13.48 271.82-14.3 270.45-15.93 269.07-17.55 269.07-20.2L269.07-20.2Q269.07-22.3 270.32-24.05 271.57-25.8 273.87-26.83 276.17-27.85 279.12-27.85L279.12-27.85Q283.67-27.85 286.47-25.55 289.27-23.25 289.47-19.25L289.47-19.25 284.92-19.25Q284.77-21.4 283.2-22.7 281.62-24 278.97-24L278.97-24Q276.52-24 275.07-22.95 273.62-21.9 273.62-20.2L273.62-20.2Q273.62-18.85 274.5-17.98 275.37-17.1 276.7-16.57 278.02-16.05 280.37-15.4L280.37-15.4Q283.32-14.6 285.17-13.83 287.02-13.05 288.35-11.5 289.67-9.95 289.72-7.45L289.72-7.45Q289.72-5.2 288.47-3.4 287.22-1.6 284.95-0.58 282.67 0.45 279.72 0.45L279.72 0.45ZM305.82 0.45Q302.67 0.45 300.17-0.63 297.67-1.7 296.22-3.63 294.77-5.55 294.62-8.05L294.62-8.05 299.32-8.05Q299.52-6 301.25-4.7 302.97-3.4 305.77-3.4L305.77-3.4Q308.37-3.4 309.87-4.55 311.37-5.7 311.37-7.45L311.37-7.45Q311.37-9.25 309.77-10.13 308.17-11 304.82-11.85L304.82-11.85Q301.77-12.65 299.85-13.48 297.92-14.3 296.55-15.93 295.17-17.55 295.17-20.2L295.17-20.2Q295.17-22.3 296.42-24.05 297.67-25.8 299.97-26.83 302.27-27.85 305.22-27.85L305.22-27.85Q309.77-27.85 312.57-25.55 315.37-23.25 315.57-19.25L315.57-19.25 311.02-19.25Q310.87-21.4 309.3-22.7 307.72-24 305.07-24L305.07-24Q302.62-24 301.17-22.95 299.72-21.9 299.72-20.2L299.72-20.2Q299.72-18.85 300.6-17.98 301.47-17.1 302.8-16.57 304.12-16.05 306.47-15.4L306.47-15.4Q309.42-14.6 311.27-13.83 313.12-13.05 314.45-11.5 315.77-9.95 315.82-7.45L315.82-7.45Q315.82-5.2 314.57-3.4 313.32-1.6 311.05-0.58 308.77 0.45 305.82 0.45L305.82 0.45ZM324.57-31.85Q323.27-31.85 322.37-32.75 321.47-33.65 321.47-34.95L321.47-34.95Q321.47-36.25 322.37-37.15 323.27-38.05 324.57-38.05L324.57-38.05Q325.82-38.05 326.69-37.15 327.57-36.25 327.57-34.95L327.57-34.95Q327.57-33.65 326.69-32.75 325.82-31.85 324.57-31.85L324.57-31.85ZM322.22-27.4L326.77-27.4 326.77 0 322.22 0 322.22-27.4ZM367.47-27.9Q370.67-27.9 373.17-26.58 375.67-25.25 377.12-22.6 378.57-19.95 378.57-16.15L378.57-16.15 378.57 0 374.07 0 374.07-15.5Q374.07-19.6 372.04-21.78 370.02-23.95 366.57-23.95L366.57-23.95Q363.02-23.95 360.92-21.68 358.82-19.4 358.82-15.1L358.82-15.1 358.82 0 354.32 0 354.32-15.5Q354.32-19.6 352.29-21.78 350.27-23.95 346.82-23.95L346.82-23.95Q343.27-23.95 341.17-21.68 339.07-19.4 339.07-15.1L339.07-15.1 339.07 0 334.52 0 334.52-27.4 339.07-27.4 339.07-23.45Q340.42-25.6 342.69-26.75 344.97-27.9 347.72-27.9L347.72-27.9Q351.17-27.9 353.82-26.35 356.47-24.8 357.77-21.8L357.77-21.8Q358.92-24.7 361.57-26.3 364.22-27.9 367.47-27.9L367.47-27.9ZM397.96 0.45Q394.11 0.45 390.99-1.3 387.86-3.05 386.09-6.28 384.31-9.5 384.31-13.75L384.31-13.75Q384.31-17.95 386.14-21.18 387.96-24.4 391.11-26.13 394.26-27.85 398.16-27.85L398.16-27.85Q402.06-27.85 405.21-26.13 408.36-24.4 410.19-21.2 412.01-18 412.01-13.75L412.01-13.75Q412.01-9.5 410.14-6.28 408.26-3.05 405.06-1.3 401.86 0.45 397.96 0.45L397.96 0.45ZM397.96-3.55Q400.41-3.55 402.56-4.7 404.71-5.85 406.04-8.15 407.36-10.45 407.36-13.75L407.36-13.75Q407.36-17.05 406.06-19.35 404.76-21.65 402.66-22.78 400.56-23.9 398.11-23.9L398.11-23.9Q395.61-23.9 393.54-22.78 391.46-21.65 390.21-19.35 388.96-17.05 388.96-13.75L388.96-13.75Q388.96-10.4 390.19-8.1 391.41-5.8 393.46-4.67 395.51-3.55 397.96-3.55L397.96-3.55Z" opacity="1" transform="matrix(1,0,0,1,0,0)" fill="black" class="wordmark-text-0" id="SvgjsPath3965" stroke-width="5" stroke="black" stroke-linejoin="round"></path></svg></g></svg></g></svg></g></svg></g></svg></g></svg></g></mask><g mask="url(#806c2800-f07a-4a38-a05b-501d159b3ca4)"><g><path d="M81.168 242.188c-15.302 0-29.007-2.728-41.115-8.183-12.064-5.411-21.533-12.951-28.408-22.62-6.875-9.625-10.423-20.757-10.645-33.397v0h32.267c1.109 10.866 5.611 20.003 13.505 27.41 7.85 7.451 19.316 11.177 34.396 11.177v0c14.415 0 25.791-3.615 34.129-10.845 8.294-7.185 12.441-16.433 12.441-27.742v0c0-8.871-2.439-16.078-7.318-21.622-4.879-5.544-10.977-9.758-18.296-12.641-7.318-2.883-17.187-5.988-29.605-9.314v0c-15.302-3.992-27.543-7.984-36.724-11.975-9.225-3.992-17.098-10.268-23.618-18.828-6.564-8.516-9.846-19.981-9.846-34.396v0c0-12.641 3.216-23.84 9.646-33.597 6.431-9.758 15.479-17.298 27.144-22.62 11.62-5.322 24.971-7.984 40.051-7.983v0c21.733 0 39.541 5.433 53.423 16.299 13.838 10.866 21.644 25.281 23.418 43.244v0h-33.265c-1.109-8.871-5.766-16.699-13.971-23.484-8.205-6.742-19.072-10.112-32.599-10.113v0c-12.641 0-22.953 3.26-30.936 9.78-7.984 6.564-11.975 15.723-11.975 27.476v0c0 8.427 2.395 15.302 7.185 20.625 4.746 5.322 10.622 9.358 17.63 12.108 6.963 2.794 16.765 5.965 29.406 9.513v0c15.302 4.214 27.61 8.383 36.924 12.508 9.314 4.08 17.298 10.379 23.95 18.894 6.653 8.56 9.979 20.158 9.979 34.795v0c0 11.31-2.994 21.955-8.981 31.934-5.988 9.979-14.858 18.074-26.612 24.283-11.753 6.209-25.614 9.314-41.58 9.314zM362.586 8.006h31.934l-87.486 231.854h-34.928l-87.486-231.854h32.267l72.85 199.92z" fill="#29231d" fill-rule="nonzero" stroke="none" stroke-width="1" stroke-linecap="butt" stroke-linejoin="miter" stroke-miterlimit="10" stroke-dasharray="" stroke-dashoffset="0" font-family="none" font-weight="none" font-size="none" text-anchor="none" style="mix-blend-mode: normal" data-fill-palette-color="tertiary"></path></g></g><g transform="matrix(1,0,0,1,0,96.60017382906808)"><svg viewBox="0 0 395.52 53.99965234186383" height="53.99965234186383" width="395.52"><g><svg viewBox="0 0 395.52 53.99965234186383" height="53.99965234186383" width="395.52"><g><svg viewBox="0 0 395.52 53.99965234186383" height="53.99965234186383" width="395.52"><g id="textblocktransform"><svg viewBox="0 0 395.52 53.99965234186383" height="53.99965234186383" width="395.52" id="textblock"><g><svg viewBox="0 0 395.52 53.99965234186383" height="53.99965234186383" width="395.52"><g transform="matrix(1,0,0,1,0,0)"><svg width="395.52" viewBox="-0.1499999999999999 -41.05 415.15999999999997 57.55" height="53.99965234186383" data-palette-color="#29231d"><path d="M14.9 0.35Q11.45 0.35 8.72-0.88 6-2.1 4.45-4.28 2.9-6.45 2.85-9.3L2.85-9.3 7.7-9.3Q7.95-6.85 9.73-5.18 11.5-3.5 14.9-3.5L14.9-3.5Q18.15-3.5 20.03-5.13 21.9-6.75 21.9-9.3L21.9-9.3Q21.9-11.3 20.8-12.55 19.7-13.8 18.05-14.45 16.4-15.1 13.6-15.85L13.6-15.85Q10.15-16.75 8.08-17.65 6-18.55 4.53-20.48 3.05-22.4 3.05-25.65L3.05-25.65Q3.05-28.5 4.5-30.7 5.95-32.9 8.58-34.1 11.2-35.3 14.6-35.3L14.6-35.3Q19.5-35.3 22.63-32.85 25.75-30.4 26.15-26.35L26.15-26.35 21.15-26.35Q20.9-28.35 19.05-29.88 17.2-31.4 14.15-31.4L14.15-31.4Q11.3-31.4 9.5-29.93 7.7-28.45 7.7-25.8L7.7-25.8Q7.7-23.9 8.78-22.7 9.85-21.5 11.43-20.88 13-20.25 15.85-19.45L15.85-19.45Q19.3-18.5 21.4-17.57 23.5-16.65 25-14.73 26.5-12.8 26.5-9.5L26.5-9.5Q26.5-6.95 25.15-4.7 23.8-2.45 21.15-1.05 18.5 0.35 14.9 0.35L14.9 0.35ZM58.2-14.75Q58.2-13.45 58.05-12L58.05-12 36.15-12Q36.4-7.95 38.92-5.68 41.45-3.4 45.05-3.4L45.05-3.4Q48-3.4 49.97-4.78 51.95-6.15 52.75-8.45L52.75-8.45 57.65-8.45Q56.55-4.5 53.25-2.02 49.95 0.45 45.05 0.45L45.05 0.45Q41.15 0.45 38.07-1.3 35-3.05 33.25-6.28 31.5-9.5 31.5-13.75L31.5-13.75Q31.5-18 33.2-21.2 34.9-24.4 37.97-26.13 41.05-27.85 45.05-27.85L45.05-27.85Q48.95-27.85 51.95-26.15 54.95-24.45 56.57-21.48 58.2-18.5 58.2-14.75L58.2-14.75ZM53.5-15.7Q53.5-18.3 52.35-20.18 51.2-22.05 49.22-23.03 47.25-24 44.85-24L44.85-24Q41.4-24 38.97-21.8 36.55-19.6 36.2-15.7L36.2-15.7 53.5-15.7ZM68.75-22.95Q69.94-25.3 72.17-26.6 74.39-27.9 77.59-27.9L77.59-27.9 77.59-23.2 76.39-23.2Q68.75-23.2 68.75-14.9L68.75-14.9 68.75 0 64.19 0 64.19-27.4 68.75-27.4 68.75-22.95ZM94.14-27.85Q97.69-27.85 100.37-26.3 103.04-24.75 104.34-22.4L104.34-22.4 104.34-27.4 108.94-27.4 108.94 0.6Q108.94 4.35 107.34 7.28 105.74 10.2 102.77 11.85 99.79 13.5 95.84 13.5L95.84 13.5Q90.44 13.5 86.84 10.95 83.24 8.4 82.59 4L82.59 4 87.09 4Q87.84 6.5 90.19 8.03 92.54 9.55 95.84 9.55L95.84 9.55Q99.59 9.55 101.97 7.2 104.34 4.85 104.34 0.6L104.34 0.6 104.34-5.15Q102.99-2.75 100.34-1.15 97.69 0.45 94.14 0.45L94.14 0.45Q90.49 0.45 87.52-1.35 84.54-3.15 82.84-6.4 81.14-9.65 81.14-13.8L81.14-13.8Q81.14-18 82.84-21.18 84.54-24.35 87.52-26.1 90.49-27.85 94.14-27.85L94.14-27.85ZM104.34-13.75Q104.34-16.85 103.09-19.15 101.84-21.45 99.72-22.68 97.59-23.9 95.04-23.9L95.04-23.9Q92.49-23.9 90.39-22.7 88.29-21.5 87.04-19.2 85.79-16.9 85.79-13.8L85.79-13.8Q85.79-10.65 87.04-8.33 88.29-6 90.39-4.78 92.49-3.55 95.04-3.55L95.04-3.55Q97.59-3.55 99.72-4.78 101.84-6 103.09-8.33 104.34-10.65 104.34-13.75L104.34-13.75ZM118.99-31.85Q117.69-31.85 116.79-32.75 115.89-33.65 115.89-34.95L115.89-34.95Q115.89-36.25 116.79-37.15 117.69-38.05 118.99-38.05L118.99-38.05Q120.24-38.05 121.12-37.15 121.99-36.25 121.99-34.95L121.99-34.95Q121.99-33.65 121.12-32.75 120.24-31.85 118.99-31.85L118.99-31.85ZM116.64-27.4L121.19-27.4 121.19 0 116.64 0 116.64-27.4ZM140.89 0.45Q137.04 0.45 133.91-1.3 130.79-3.05 129.01-6.28 127.24-9.5 127.24-13.75L127.24-13.75Q127.24-17.95 129.06-21.18 130.89-24.4 134.04-26.13 137.19-27.85 141.09-27.85L141.09-27.85Q144.99-27.85 148.14-26.13 151.29-24.4 153.11-21.2 154.94-18 154.94-13.75L154.94-13.75Q154.94-9.5 153.06-6.28 151.19-3.05 147.99-1.3 144.79 0.45 140.89 0.45L140.89 0.45ZM140.89-3.55Q143.34-3.55 145.49-4.7 147.64-5.85 148.96-8.15 150.29-10.45 150.29-13.75L150.29-13.75Q150.29-17.05 148.99-19.35 147.69-21.65 145.59-22.78 143.49-23.9 141.04-23.9L141.04-23.9Q138.54-23.9 136.46-22.78 134.39-21.65 133.14-19.35 131.89-17.05 131.89-13.75L131.89-13.75Q131.89-10.4 133.11-8.1 134.34-5.8 136.39-4.67 138.44-3.55 140.89-3.55L140.89-3.55ZM198.28-34.85L203.08-34.85 189.93 0 184.68 0 171.53-34.85 176.38-34.85 187.33-4.8 198.28-34.85ZM233.08-14.75Q233.08-13.45 232.93-12L232.93-12 211.03-12Q211.28-7.95 213.81-5.68 216.33-3.4 219.93-3.4L219.93-3.4Q222.88-3.4 224.86-4.78 226.83-6.15 227.63-8.45L227.63-8.45 232.53-8.45Q231.43-4.5 228.13-2.02 224.83 0.45 219.93 0.45L219.93 0.45Q216.03 0.45 212.96-1.3 209.88-3.05 208.13-6.28 206.38-9.5 206.38-13.75L206.38-13.75Q206.38-18 208.08-21.2 209.78-24.4 212.86-26.13 215.93-27.85 219.93-27.85L219.93-27.85Q223.83-27.85 226.83-26.15 229.83-24.45 231.46-21.48 233.08-18.5 233.08-14.75L233.08-14.75ZM228.38-15.7Q228.38-18.3 227.23-20.18 226.08-22.05 224.11-23.03 222.13-24 219.73-24L219.73-24Q216.28-24 213.86-21.8 211.43-19.6 211.08-15.7L211.08-15.7 228.38-15.7ZM243.63-22.95Q244.83-25.3 247.05-26.6 249.28-27.9 252.48-27.9L252.48-27.9 252.48-23.2 251.28-23.2Q243.63-23.2 243.63-14.9L243.63-14.9 243.63 0 239.08 0 239.08-27.4 243.63-27.4 243.63-22.95ZM260.08-31.85Q258.78-31.85 257.88-32.75 256.98-33.65 256.98-34.95L256.98-34.95Q256.98-36.25 257.88-37.15 258.78-38.05 260.08-38.05L260.08-38.05Q261.33-38.05 262.2-37.15 263.08-36.25 263.08-34.95L263.08-34.95Q263.08-33.65 262.2-32.75 261.33-31.85 260.08-31.85L260.08-31.85ZM257.73-27.4L262.28-27.4 262.28 0 257.73 0 257.73-27.4ZM279.72 0.45Q276.57 0.45 274.07-0.63 271.57-1.7 270.12-3.63 268.67-5.55 268.52-8.05L268.52-8.05 273.22-8.05Q273.42-6 275.15-4.7 276.87-3.4 279.67-3.4L279.67-3.4Q282.27-3.4 283.77-4.55 285.27-5.7 285.27-7.45L285.27-7.45Q285.27-9.25 283.67-10.13 282.07-11 278.72-11.85L278.72-11.85Q275.67-12.65 273.75-13.48 271.82-14.3 270.45-15.93 269.07-17.55 269.07-20.2L269.07-20.2Q269.07-22.3 270.32-24.05 271.57-25.8 273.87-26.83 276.17-27.85 279.12-27.85L279.12-27.85Q283.67-27.85 286.47-25.55 289.27-23.25 289.47-19.25L289.47-19.25 284.92-19.25Q284.77-21.4 283.2-22.7 281.62-24 278.97-24L278.97-24Q276.52-24 275.07-22.95 273.62-21.9 273.62-20.2L273.62-20.2Q273.62-18.85 274.5-17.98 275.37-17.1 276.7-16.57 278.02-16.05 280.37-15.4L280.37-15.4Q283.32-14.6 285.17-13.83 287.02-13.05 288.35-11.5 289.67-9.95 289.72-7.45L289.72-7.45Q289.72-5.2 288.47-3.4 287.22-1.6 284.95-0.58 282.67 0.45 279.72 0.45L279.72 0.45ZM305.82 0.45Q302.67 0.45 300.17-0.63 297.67-1.7 296.22-3.63 294.77-5.55 294.62-8.05L294.62-8.05 299.32-8.05Q299.52-6 301.25-4.7 302.97-3.4 305.77-3.4L305.77-3.4Q308.37-3.4 309.87-4.55 311.37-5.7 311.37-7.45L311.37-7.45Q311.37-9.25 309.77-10.13 308.17-11 304.82-11.85L304.82-11.85Q301.77-12.65 299.85-13.48 297.92-14.3 296.55-15.93 295.17-17.55 295.17-20.2L295.17-20.2Q295.17-22.3 296.42-24.05 297.67-25.8 299.97-26.83 302.27-27.85 305.22-27.85L305.22-27.85Q309.77-27.85 312.57-25.55 315.37-23.25 315.57-19.25L315.57-19.25 311.02-19.25Q310.87-21.4 309.3-22.7 307.72-24 305.07-24L305.07-24Q302.62-24 301.17-22.95 299.72-21.9 299.72-20.2L299.72-20.2Q299.72-18.85 300.6-17.98 301.47-17.1 302.8-16.57 304.12-16.05 306.47-15.4L306.47-15.4Q309.42-14.6 311.27-13.83 313.12-13.05 314.45-11.5 315.77-9.95 315.82-7.45L315.82-7.45Q315.82-5.2 314.57-3.4 313.32-1.6 311.05-0.58 308.77 0.45 305.82 0.45L305.82 0.45ZM324.57-31.85Q323.27-31.85 322.37-32.75 321.47-33.65 321.47-34.95L321.47-34.95Q321.47-36.25 322.37-37.15 323.27-38.05 324.57-38.05L324.57-38.05Q325.82-38.05 326.69-37.15 327.57-36.25 327.57-34.95L327.57-34.95Q327.57-33.65 326.69-32.75 325.82-31.85 324.57-31.85L324.57-31.85ZM322.22-27.4L326.77-27.4 326.77 0 322.22 0 322.22-27.4ZM367.47-27.9Q370.67-27.9 373.17-26.58 375.67-25.25 377.12-22.6 378.57-19.95 378.57-16.15L378.57-16.15 378.57 0 374.07 0 374.07-15.5Q374.07-19.6 372.04-21.78 370.02-23.95 366.57-23.95L366.57-23.95Q363.02-23.95 360.92-21.68 358.82-19.4 358.82-15.1L358.82-15.1 358.82 0 354.32 0 354.32-15.5Q354.32-19.6 352.29-21.78 350.27-23.95 346.82-23.95L346.82-23.95Q343.27-23.95 341.17-21.68 339.07-19.4 339.07-15.1L339.07-15.1 339.07 0 334.52 0 334.52-27.4 339.07-27.4 339.07-23.45Q340.42-25.6 342.69-26.75 344.97-27.9 347.72-27.9L347.72-27.9Q351.17-27.9 353.82-26.35 356.47-24.8 357.77-21.8L357.77-21.8Q358.92-24.7 361.57-26.3 364.22-27.9 367.47-27.9L367.47-27.9ZM397.96 0.45Q394.11 0.45 390.99-1.3 387.86-3.05 386.09-6.28 384.31-9.5 384.31-13.75L384.31-13.75Q384.31-17.95 386.14-21.18 387.96-24.4 391.11-26.13 394.26-27.85 398.16-27.85L398.16-27.85Q402.06-27.85 405.21-26.13 408.36-24.4 410.19-21.2 412.01-18 412.01-13.75L412.01-13.75Q412.01-9.5 410.14-6.28 408.26-3.05 405.06-1.3 401.86 0.45 397.96 0.45L397.96 0.45ZM397.96-3.55Q400.41-3.55 402.56-4.7 404.71-5.85 406.04-8.15 407.36-10.45 407.36-13.75L407.36-13.75Q407.36-17.05 406.06-19.35 404.76-21.65 402.66-22.78 400.56-23.9 398.11-23.9L398.11-23.9Q395.61-23.9 393.54-22.78 391.46-21.65 390.21-19.35 388.96-17.05 388.96-13.75L388.96-13.75Q388.96-10.4 390.19-8.1 391.41-5.8 393.46-4.67 395.51-3.55 397.96-3.55L397.96-3.55Z" opacity="1" transform="matrix(1,0,0,1,0,0)" fill="#29231d" class="wordmark-text-0" data-fill-palette-color="primary" id="text-0"></path></svg></g></svg></g></svg></g></svg></g></svg></g></svg></g></svg></g><defs></defs></svg><rect width="395.52" height="247.2" fill="none" stroke="none" visibility="hidden"></rect></g></svg></g></svg>